PathFileType	4	(X/Y/Z)	/Users/itak/Documents/Research/Walk-IL/dataset/trc/00208_00009.trc
DataRate	CameraRate	NumFrames	NumMarkers	Units	OrigDataRate	OrigDataStartFrame	OrigNumFrames
100.000000	100.000000	4	53	mm	100.000000	295	787
Frame#	Time	RPSI			LPSI			L3			STRN			T10			C7			CLAV			RBAK			LBAK			LSHO			LUPA			LAEL			LAOL			LWTS			LWPS			LFRA			LIFD			LHPS			LHTS			RSHO			RUPA			RAEL			RAOL			RWTS			RWPS			RFRA			RIFD			RHTS			RHPS			RBHD			LFHD			RFHD			LBHD			LHIP			RHIP			RASI			LASI			LKNE			LTHI			LANK			LTIP			LTOE			LMT1			LMT5			LHEE			RKNE			RTHI			RANK			RTIP			RTOE			RMT1			RMT5			RHEE			
		X1	Y1	Z1	X2	Y2	Z2	X3	Y3	Z3	X4	Y4	Z4	X5	Y5	Z5	X6	Y6	Z6	X7	Y7	Z7	X8	Y8	Z8	X9	Y9	Z9	X10	Y10	Z10	X11	Y11	Z11	X12	Y12	Z12	X13	Y13	Z13	X14	Y14	Z14	X15	Y15	Z15	X16	Y16	Z16	X17	Y17	Z17	X18	Y18	Z18	X19	Y19	Z19	X20	Y20	Z20	X21	Y21	Z21	X22	Y22	Z22	X23	Y23	Z23	X24	Y24	Z24	X25	Y25	Z25	X26	Y26	Z26	X27	Y27	Z27	X28	Y28	Z28	X29	Y29	Z29	X30	Y30	Z30	X31	Y31	Z31	X32	Y32	Z32	X33	Y33	Z33	X34	Y34	Z34	X35	Y35	Z35	X36	Y36	Z36	X37	Y37	Z37	X38	Y38	Z38	X39	Y39	Z39	X40	Y40	Z40	X41	Y41	Z41	X42	Y42	Z42	X43	Y43	Z43	X44	Y44	Z44	X45	Y45	Z45	X46	Y46	Z46	X47	Y47	Z47	X48	Y48	Z48	X49	Y49	Z49	X50	Y50	Z50	X51	Y51	Z51	X52	Y52	Z52	X53	Y53	Z53	

296	2.95	-1232.262573242188	1051.175659179688	-71.082763671875	-1226.210815429688	1059.56005859375	-191.0583190917969	-1224.912353515625	1143.677856445312	-141.7605285644531	-958.46484375	1300.021850585938	-144.7215118408203	-1220.173095703125	1269.224365234375	-127.2558517456055	-1126.787475585938	1522.482055664062	-126.7448577880859	-972.84619140625	1419.836791992188	-140.3335571289062	-1214.79443359375	1391.591430664062	-50.55512237548828	-1157.785400390625	1491.554565429688	-236.6146087646484	-1072.521484375	1485.817749023438	-300.093994140625	-1125.714599609375	1375.345092773438	-377.0093688964844	-1152.598510742188	1169.216552734375	-412.6282958984375	-1222.7373046875	1163.814819335938	-360.2391967773438	-1091.940795898438	924.8040161132812	-365.4911193847656	-1125.773803710938	912.413818359375	-441.5278015136719	-1147.380249023438	1059.840209960938	-429.5641174316406	-1104.76904296875	726.9444580078125	-379.338623046875	-1119.374877929688	822.5830078125	-439.1448669433594	-1072.229370117188	821.1393432617188	-389.5277099609375	-1060.99169921875	1466.977783203125	35.53631973266602	-1078.681396484375	1402.652221679688	103.0234985351562	-1096.753295898438	1120.242309570312	142.3668670654297	-1148.188110351562	1117.936767578125	62.07565689086914	-978.4037475585938	904.7527465820312	54.14006042480469	-1012.691101074219	887.6221923828125	131.0746612548828	-1069.331420898438	1049.486450195312	145.4813079833984	-964.6304321289062	708.5955810546875	40.64600372314453	-938.827880859375	782.48828125	52.31290435791016	-974.3009033203125	780.7086791992188	115.8733749389648	-1073.196655273438	1676.056518554688	-85.34439086914062	-861.7120971679688	1688.434936523438	-168.1121215820312	-868.1844482421875	1687.511596679688	-68.22732543945312	-1019.582763671875	1676.42236328125	-214.8388671875	-1116.534790039062	1000.078491210938	-326.8438110351562	-1144.932250976562	1000.606323242188	41.71603775024414	-1042.45361328125	1040.163696289062	9.674800872802734	-1018.952819824219	1033.815551757812	-270.2804260253906	-957.11474609375	531.8084106445312	-283.4159545898438	-1002.177551269531	669.439697265625	-320.0611572265625	-968.9334106445312	45.26927185058594	-284.5686645507812	-972.1165771484375	301.4158935546875	-296.5831604003906	-767.1809692382812	83.93370056152344	-214.8694610595703	-834.6617431640625	66.57516479492188	-177.885009765625	-843.0852661132812	58.54943084716797	-291.3707885742188	-1035.644897460938	48.81738662719727	-239.0072021484375	-1168.606811523438	509.2890319824219	-11.09752082824707	-1109.406005859375	772.5621948242188	41.70984649658203	-1296.214965820312	39.40084075927734	-57.91488647460938	-1176.601440429688	394.4770202636719	-33.1034049987793	-1080.303100585938	46.28001403808594	-76.21610260009766	-1132.356201171875	45.27105712890625	-124.6987991333008	-1191.752197265625	39.62373352050781	-16.40505981445312	-1351.624145507812	38.91716384887695	-122.3713989257812	
297	2.96	-1228.624145507812	1050.68994140625	-72.44683837890625	-1222.123046875	1059.018798828125	-192.3863525390625	-1221.162231445312	1143.078125	-143.1025543212891	-954.990234375	1299.721557617188	-145.5783996582031	-1216.693237304688	1268.569702148438	-128.5416412353516	-1123.6728515625	1521.961303710938	-128.0852813720703	-969.5482788085938	1419.497924804688	-141.3356018066406	-1211.599975585938	1391.064208984375	-51.8906135559082	-1154.45361328125	1490.893188476562	-237.9248657226562	-1069.131958007812	1485.233764648438	-301.3135375976562	-1122.331909179688	1374.72412109375	-378.1545104980469	-1149.568481445312	1168.652465820312	-413.7083435058594	-1219.584594726562	1163.359008789062	-361.1818542480469	-1089.478759765625	924.0431518554688	-366.7735595703125	-1123.315063476562	911.7850341796875	-442.7235412597656	-1144.596923828125	1059.260986328125	-430.6764221191406	-1103.0654296875	726.2744750976562	-380.5880737304688	-1117.267578125	821.9583740234375	-440.4192199707031	-1070.00341796875	820.3400268554688	-390.8102111816406	-1058.06982421875	1466.69482421875	34.31596374511719	-1075.80078125	1402.450439453125	101.8605575561523	-1093.644409179688	1120.066772460938	141.4710845947266	-1145.035888671875	1117.6357421875	61.14853668212891	-975.0802001953125	904.5527954101562	53.65398788452148	-1009.4404296875	887.4771118164062	130.5750274658203	-1066.195922851562	1049.324584960938	144.7085876464844	-961.208251953125	708.3975830078125	40.40854644775391	-935.4420166015625	782.3106079101562	52.03166961669922	-971.00732421875	780.59375	115.5441436767578	-1070.193237304688	1675.689086914062	-86.71694183349609	-858.6688842773438	1688.177001953125	-169.3462219238281	-865.2191162109375	1687.350952148438	-69.45427703857422	-1016.539184570312	1675.948486328125	-216.1836395263672	-1111.920776367188	999.4815673828125	-327.7137756347656	-1141.84326171875	1000.229736328125	40.62860488891602	-1039.122802734375	1039.849731445312	9.013789176940918	-1014.961791992188	1033.065795898438	-270.6890258789062	-954.57763671875	530.77099609375	-284.0332946777344	-999.0859375	668.481201171875	-320.9277038574219	-964.11767578125	44.26747512817383	-284.7872314453125	-968.4185180664062	300.399658203125	-297.0242004394531	-762.8465576171875	83.46038818359375	-213.8693084716797	-830.522216796875	65.98872375488281	-177.2823791503906	-838.2706909179688	57.73168182373047	-290.7695007324219	-1031.149169921875	47.80325317382812	-239.5757141113281	-1166.797241210938	509.156494140625	-11.51103210449219	-1106.708374023438	772.2010498046875	41.15334320068359	-1296.232543945312	39.39544296264648	-57.89292907714844	-1175.26416015625	394.2835693359375	-33.39229202270508	-1080.304443359375	46.29095458984375	-76.15079498291016	-1132.3759765625	45.33631896972656	-124.610107421875	-1191.705932617188	39.53152084350586	-16.36224746704102	-1351.615234375	39.04890823364258	-122.3541946411133	
298	2.97	-1224.8486328125	1050.136962890625	-73.89501190185547	-1217.874877929688	1058.416625976562	-193.7871704101562	-1217.270629882812	1142.40087890625	-144.5273895263672	-951.4812622070312	1299.402954101562	-146.4869689941406	-1213.108032226562	1267.845458984375	-129.9259338378906	-1120.53662109375	1521.392578125	-129.5236206054688	-966.1861572265625	1419.14697265625	-142.3883972167969	-1208.353271484375	1390.476806640625	-53.33340835571289	-1151.0556640625	1490.175048828125	-239.3329772949219	-1065.668579101562	1484.6064453125	-302.6138305664062	-1118.842651367188	1374.0439453125	-379.3893432617188	-1146.38427734375	1168.022094726562	-414.8547973632812	-1216.294311523438	1162.826904296875	-362.2019653320312	-1086.814086914062	923.2379150390625	-368.0892333984375	-1120.673706054688	911.0921630859375	-443.9664001464844	-1141.646118164062	1058.60986328125	-431.8392028808594	-1101.125	725.5553588867188	-381.8603820800781	-1114.958740234375	821.272216796875	-441.7293395996094	-1067.564086914062	819.4923095703125	-392.1213073730469	-1055.139892578125	1466.386474609375	33.02743530273438	-1072.921997070312	1402.229370117188	100.6205978393555	-1090.53857421875	1119.873413085938	140.5261993408203	-1141.85693359375	1117.2998046875	60.155029296875	-971.7372436523438	904.3157348632812	53.21900177001953	-1006.193481445312	887.3175659179688	130.1211395263672	-1063.053588867188	1049.137451171875	143.9109497070312	-957.7698364257812	708.1605834960938	40.28005981445312	-932.0513916015625	782.0838012695312	51.85405349731445	-967.7225952148438	780.444091796875	115.2941970825195	-1067.173950195312	1675.283325195312	-88.16764831542969	-855.6039428710938	1687.915649414062	-170.6224060058594	-862.2454223632812	1687.1875	-70.72090148925781	-1013.45068359375	1675.450805664062	-217.5913696289062	-1107.15283203125	998.8268432617188	-328.6383056640625	-1138.607177734375	999.8075561523438	39.47710037231445	-1035.654663085938	1039.506591796875	8.316679000854492	-1010.671264648438	1032.347778320312	-271.1841125488281	-951.9473876953125	529.6705932617188	-284.6136474609375	-995.845703125	667.4710693359375	-321.724853515625	-960.1303100585938	43.2383918762207	-285.0039978027344	-965.0465698242188	299.3117370605469	-297.4084167480469	-759.2298583984375	82.60045623779297	-212.9799499511719	-827.0997314453125	65.11260223388672	-176.75341796875	-834.2838745117188	56.67121887207031	-290.2221069335938	-1027.433837890625	46.87675857543945	-240.0537719726562	-1164.847045898438	509.0069885253906	-11.98057746887207	-1103.845092773438	771.8189086914062	40.54032897949219	-1296.245361328125	39.40266418457031	-57.87722778320312	-1173.845336914062	394.0595703125	-33.75604248046875	-1080.298583984375	46.30425643920898	-76.08792114257812	-1132.396118164062	45.40010452270508	-124.5245590209961	-1191.671508789062	39.44762420654297	-16.32293701171875	-1351.603271484375	39.21835327148438	-122.3356246948242	
299	2.98	-1220.930419921875	1049.519165039062	-75.41889190673828	-1213.474365234375	1057.760620117188	-195.2570648193359	-1213.239501953125	1141.6435546875	-146.0358734130859	-947.9464721679688	1299.068603515625	-147.4494018554688	-1209.414306640625	1267.054443359375	-131.4104156494141	-1117.375610351562	1520.782104492188	-131.0596160888672	-962.76171875	1418.78857421875	-143.4929046630859	-1205.063232421875	1389.826293945312	-54.89365768432617	-1147.593383789062	1489.400268554688	-240.8414154052734	-1062.13037109375	1483.935180664062	-303.9969482421875	-1115.248168945312	1373.30029296875	-380.7176513671875	-1143.037475585938	1167.320922851562	-416.068359375	-1212.86181640625	1162.215209960938	-363.3020935058594	-1083.944946289062	922.384033203125	-369.4367980957031	-1117.851440429688	910.33251953125	-445.2586364746094	-1138.520874023438	1057.886596679688	-433.0552978515625	-1098.943969726562	724.7854614257812	-383.1508178710938	-1112.440795898438	820.5182495117188	-443.0753784179688	-1064.923217773438	818.589111328125	-393.4684448242188	-1052.207397460938	1466.052978515625	31.67017936706543	-1070.05224609375	1401.986938476562	99.30515289306641	-1087.437622070312	1119.6611328125	139.5318908691406	-1138.6494140625	1116.927368164062	59.09329223632812	-968.3714599609375	904.0431518554688	52.83784866333008	-1002.951049804688	887.1445922851562	129.7116088867188	-1059.908569335938	1048.9267578125	143.0818481445312	-954.3115234375	707.880615234375	40.26203155517578	-928.6538696289062	781.8096313476562	51.7774772644043	-964.4413452148438	780.2623291015625	115.1255798339844	-1064.139282226562	1674.840209960938	-89.69593811035156	-852.5198364257812	1687.653198242188	-171.9384002685547	-859.2633056640625	1687.026733398438	-72.02659606933594	-1010.311889648438	1674.933715820312	-219.0599822998047	-1102.24658203125	998.1200561523438	-329.6168823242188	-1135.193969726562	999.3364868164062	38.27099227905273	-1032.050659179688	1039.137329101562	7.569849967956543	-1006.078125	1031.677856445312	-271.7811584472656	-949.2264404296875	528.5247802734375	-285.1500854492188	-992.459228515625	666.4183349609375	-322.43798828125	-956.9702758789062	42.2107048034668	-285.2112121582031	-961.9962158203125	298.164794921875	-297.7242736816406	-756.3060302734375	81.28017425537109	-212.2126770019531	-824.3698120117188	63.90419006347656	-176.2981872558594	-831.1160888671875	55.34415054321289	-289.7346801757812	-1024.488525390625	46.07085037231445	-240.4228515625	-1162.75244140625	508.8391723632812	-12.50915050506592	-1100.808471679688	771.4208374023438	39.86065673828125	-1296.252075195312	39.42279434204102	-57.86657333374023	-1172.336791992188	393.814453125	-34.1907958984375	-1080.288208007812	46.32040786743164	-76.03133392333984	-1132.415283203125	45.46314239501953	-124.4412460327148	-1191.6455078125	39.37007141113281	-16.28449630737305	-1351.588623046875	39.43202209472656	-122.3161010742188	
